<svg width="512" height="512" xmlns="http://www.w3.org/2000/svg">
 <title>Sun</title>

 <g>
  <title>background</title>
  <rect fill="none" id="canvas_background" height="402" width="582" y="-1" x="-1"/>
 </g>
 <g>
  <title>Layer 1</title>
  <path stroke="null" id="svg_1" d="m293.476492,174.495615l-25.468423,-17.248681l5.834739,-30.238428c1.107323,-5.621792 -0.681429,-11.413942 -4.727416,-15.502518c-4.088576,-4.045987 -9.880726,-5.834739 -15.41734,-4.727416l-30.195839,5.834739l-17.206092,-25.511012c-6.43099,-9.497422 -22.103865,-9.497422 -28.534855,0l-17.206092,25.511012l-30.15325,-5.834739c-5.664382,-1.064733 -11.413942,0.681429 -15.459929,4.770006c-4.045987,4.088576 -5.834739,9.838137 -4.727416,15.459929l5.834739,30.238428l-25.468423,17.248681c-4.770006,3.23679 -7.580902,8.560456 -7.580902,14.310017s2.853485,11.073227 7.580902,14.267427l25.468423,17.248681l-5.834739,30.238428c-1.107323,5.621792 0.681429,11.413942 4.727416,15.459929c4.045987,4.045987 9.752958,5.834739 15.459929,4.727416l30.15325,-5.834739l17.206092,25.511012c3.1942,4.770006 8.560456,7.623491 14.267427,7.623491s11.073227,-2.853485 14.267427,-7.580902l17.206092,-25.511012l30.195839,5.834739c5.706971,1.149912 11.413942,-0.681429 15.459929,-4.727416c4.045987,-4.045987 5.79215,-9.838137 4.727416,-15.459929l-5.834739,-30.238428l25.468423,-17.248681c4.727416,-3.1942 7.580902,-8.560456 7.580902,-14.267427c-0.042589,-5.79215 -2.853485,-11.115817 -7.623491,-14.352606zm-48.08336,36.456471l7.495723,38.841474l-38.756295,-7.495723l-22.103865,32.751199l-22.103865,-32.793788l-38.713706,7.495723l7.495723,-38.841474l-32.70861,-22.146455l32.70861,-22.146455l-7.495723,-38.841474l38.756295,7.495723l22.061276,-32.70861l22.103865,32.751199l38.756295,-7.495723l-7.495723,38.798885l32.70861,22.146455l-32.70861,22.189044zm-53.364438,-66.226417c-24.403689,0 -44.292909,19.88922 -44.292909,44.292909s19.88922,44.292909 44.292909,44.292909s44.292909,-19.88922 44.292909,-44.292909s-19.88922,-44.292909 -44.292909,-44.292909zm53.364438,134.369354c-13.160105,0 -23.850028,-10.689923 -23.850028,-23.850028s10.689923,-23.850028 23.850028,-23.850028s23.850028,10.689923 23.850028,23.850028s-10.689923,23.850028 -23.850028,23.850028z"/>
  <path stroke="null" id="svg_2" d="m189.822836,321.023652c71.953596,0 130.350718,-58.397122 130.350718,-130.350718s-58.397122,-130.350718 -130.350718,-130.350718s-130.350718,58.397122 -130.350718,130.350718s58.397122,130.350718 130.350718,130.350718zm173.800958,0l143.93616,143.93616l-43.450239,43.450239l-143.93616,-143.93616l0,-23.086561l-8.139678,-8.139678c-32.58768,28.503357 -76.037919,44.81168 -122.21104,44.81168c-104.541276,0 -188.74784,-82.816156 -188.74784,-187.386399s84.177597,-188.74784 188.74784,-188.74784s187.386399,84.177597 187.386399,188.74784c0,46.173121 -16.308323,89.62336 -44.81168,122.21104l8.139678,8.139678l23.086561,0z"/>
 </g>
</svg>